<?xml version="1.0" standalone="yes"?>
<svg xmlns="http://www.w3.org/2000/svg" width="640" height="261">
<path style="fill:#fffefe; stroke:none;" d="M0 0L0 261L8 261C4.53667 252.741 9.78305 247.825 14.3333 241C23.1887 227.717 31.81 214.285 40.6667 201C65.1943 164.209 89.1389 127.007 113.344 90C123.909 73.8466 141.146 55.3711 147 37L87 37C79.2991 37 67.764 34.8389 61 39.0285C46.0326 48.2994 32.8704 61.5917 19 72.4244C15.8585 74.8778 8.60184 83.4206 4.16281 81.1181C-1.28865 78.2904 4.62072 67.9167 6.05324 64C10.9337 50.6559 15.7611 37.2827 20.8079 24C22.4074 19.7901 23.4638 12.5206 28.108 10.6034C32.7691 8.67921 40.0244 10 45 10L83 10L216 10C217.925 23.4073 207.664 30.6143 202 42L380 42C381.15 54.2115 365.036 53.6817 363.742 64.0394C362.072 77.409 364 92.4668 364 106L364 195C373.661 192.578 374.401 185.798 377.333 177C380.678 166.965 384.321 157.038 387.667 147C388.885 143.345 389.765 137.229 393.278 135.028C396.367 133.092 401.507 134 405 134L405 200C416.173 196.642 412 178.49 412 169L412 101C412 90.3659 413.486 78.5046 411.852 68C410.752 60.929 392.189 52.3363 395.636 46.0579C398.247 41.301 404.466 42.0003 409 42C420.741 41.9993 432.314 42.0914 444 42.9105C455.78 43.7361 468.119 45.3721 479 50.3125C514.012 66.2088 520.459 106.024 519 140L520 140C523.851 123.202 528.954 106.565 533.709 90C535.896 82.3825 540.194 72.9174 540.387 65C540.555 58.1173 521.881 50.1102 527.296 44.314C530.642 40.7326 537.608 42 542 42L581 42C582.333 58.3225 589.134 75.118 593.105 91C600.609 121.017 608.015 151.072 615.884 181C618.987 192.801 624.626 197.484 632.995 206C635.049 208.09 639.954 212.099 637.914 215.531C635.312 219.907 622.324 218 618 218L560 218C559.008 207.44 569.526 206.71 572.357 198C575.234 189.151 567.763 172.089 566 163L543 163C541.021 172.564 532.686 188.404 534.904 197.985C536.107 203.185 550.399 208.974 546.994 214.686C544.901 218.196 537.474 217.219 534 217.424C521.674 218.152 509.353 218 497 218C493.126 218 484.511 219.619 482.801 214.867C481.209 210.443 487.156 207.265 490 205.127C497.9 199.186 504.911 195.084 507 185L506 185C487.399 214.396 454.763 218 423 218L275 218L229 218C224.473 218 215.481 216.286 211.649 219.028C208.415 221.342 207.527 227.453 206.333 231C202.971 240.985 198.774 250.839 196 261L640 261L640 0L0 0z"/>
<path style="fill:#eda0a2; stroke:none;" d="M1 77C16.4497 70.1158 19.1331 49.4285 24.7971 35C26.7874 29.9299 27.9445 19.9464 34.044 18.3179C46.0521 15.1119 62.558 18 75 18L163 18C181.267 18 200.818 21.6409 216 11C204.782 6.29277 185.206 10 173 10L72 10L40 10C36.1643 10 29.7653 8.80453 26.419 11.0278C22.0374 13.9388 20.3669 24.2522 18.5764 29C12.5734 44.918 6.45126 60.8863 1 77z"/>
<path style="fill:#80090b; stroke:none;" d="M214 11L184.308 53L140.308 120L88.9969 198L62 240C81.3825 233.4 93.0889 205.414 103.86 189C134.106 142.912 169.191 98.1551 196 50L197 50C202.764 56.6578 208.919 62.6094 218 62C213.364 55.4181 206.965 49.0573 199 47C202.637 37.541 222.493 20.7767 214 11z"/>
<path style="fill:#c95e62; stroke:none;" d="M215 11L216 12L215 11z"/>
<path style="fill:#eda0a2; stroke:none;" d="M216 13L217 14L216 13z"/>
<path style="fill:#c95e62; stroke:none;" d="M216 14L217 15L216 14M217.333 16.6667L217.667 17.3333L217.333 16.6667z"/>
<path style="fill:#cb020e; stroke:none;" d="M13 68C30.7246 58.8541 44.1988 37.0529 63 30.5887C70.4154 28.0392 79.4089 31.0008 87 30.625C111.401 29.4169 136.449 31 161 31L64.6667 177L32.3326 226L14 255L144 255.114L176 256L188.49 254.972L194.05 243L205 212L167 241.4L134 242L60 242L94.0779 191L148 109L188.692 47L207 18L78 18L45 18L31.5633 19.0278L25.811 32L13 68z"/>
<path style="fill:#eda0a2; stroke:none;" d="M217 18L218 19L217 18z"/>
<path style="fill:#c95e62; stroke:none;" d="M216 19L217 20L216 19M29.3333 21.6667L29.6667 22.3333L29.3333 21.6667z"/>
<path style="fill:#eda0a2; stroke:none;" d="M215 21L216 22L215 21z"/>
<path style="fill:#c95e62; stroke:none;" d="M214 22L215 23L214 22M213 23L214 24L213 23M28.3333 24.6667L28.6667 25.3333L28.3333 24.6667z"/>
<path style="fill:#eda0a2; stroke:none;" d="M213 24L214 25L213 24z"/>
<path style="fill:#c95e62; stroke:none;" d="M202 25L203 26L202 25M212 25L213 26L212 25M211 26L212 27L211 26M27 27L28 28L27 27z"/>
<path style="fill:#eda0a2; stroke:none;" d="M211 27L212 28L211 27z"/>
<path style="fill:#c95e62; stroke:none;" d="M210 28L211 29L210 28M26 30L27 31L26 30z"/>
<path style="fill:#80090b; stroke:none;" d="M1 78L1 79L5 83L6 83C18.938 71.8042 32.8049 61.6484 46 50.75C51.5966 46.1275 58.7716 38.0398 66 36.314C95.9592 29.1613 129.572 43.3522 159 32L137 31L87 30.9606L61 30.9884L40 47L1 78z"/>
<path style="fill:#c95e62; stroke:none;" d="M82.6667 30.3333L83.3333 30.6667L82.6667 30.3333M88 30L88 31L101 31L88 30M105 30L106 31L105 30z"/>
<path style="fill:#eda0a2; stroke:none;" d="M209 30L210 31L209 30z"/>
<path style="fill:#c95e62; stroke:none;" d="M159.667 31.3333L160.333 31.6667L159.667 31.3333M208 31L209 32L208 31z"/>
<path style="fill:#eda0a2; stroke:none;" d="M5 255C15.0128 254.965 17.4057 248.679 22.5154 241L47.6667 203C71.3173 167.459 94.707 131.725 118.078 96C131.953 74.7903 147.672 54.1437 160 32C148.654 34.0225 144.267 42.0994 138.333 51C130.589 62.6167 123.068 74.3766 115.333 86C91.2772 122.151 67.896 158.749 43.9969 195C31.1854 214.433 14.9484 233.971 5 255z"/>
<path style="fill:#c95e62; stroke:none;" d="M207 32L208 33L207 32M159 33L160 34L159 33z"/>
<path style="fill:#eda0a2; stroke:none;" d="M207 33L208 34L207 33z"/>
<path style="fill:#c95e62; stroke:none;" d="M152 34L153 35L152 34M158 34L159 35L158 34M206 34L207 35L206 34M24 35L25 36L24 35M149.667 35.3333L150.333 35.6667L149.667 35.3333M205 35L206 36L205 35M63 36L63 37L149 37L122 36L63 36M157 36L158 37L157 36z"/>
<path style="fill:#eda0a2; stroke:none;" d="M205 36L206 37L205 36z"/>
<path style="fill:#c95e62; stroke:none;" d="M52 37L53 38L52 37z"/>
<path style="fill:#eda0a2; stroke:none;" d="M62 37L63 38L62 37z"/>
<path style="fill:#c95e62; stroke:none;" d="M156 37L157 38L156 37M204 37L205 38L204 37M23 38L24 39L23 38M51 38L52 39L51 38z"/>
<path style="fill:#eda0a2; stroke:none;" d="M61 38L62 39L61 38M60 39L61 40L60 39z"/>
<path style="fill:#c95e62; stroke:none;" d="M155 39L156 40L155 39M22.3333 40.6667L22.6667 41.3333L22.3333 40.6667M58 40L59 41L58 40M154 40L155 41L154 40z"/>
<path style="fill:#eda0a2; stroke:none;" d="M202 40L203 41L202 40z"/>
<path style="fill:#c95e62; stroke:none;" d="M57 41L58 42L57 41M201 41L202 42L201 41z"/>
<path style="fill:#eda0a2; stroke:none;" d="M56 42L57 43L56 42z"/>
<path style="fill:#c95e62; stroke:none;" d="M153 42L154 43L153 42z"/>
<path style="fill:#eda0a2; stroke:none;" d="M199 46C207.458 49.5688 217.966 48 227 48L281 48C290.295 48 300.68 50.1585 307 42L227 42C219.139 42 203.892 38.8429 199 46z"/>
<path style="fill:#c95e62; stroke:none;" d="M307 42L308 43L307 42z"/>
<path style="fill:#eda0a2; stroke:none;" d="M308 42C308.663 50.505 318.531 48 325 48C341.808 48 363.398 51.961 378 43L356 42L308 42z"/>
<path style="fill:#c95e62; stroke:none;" d="M378 42L380 44L378 42z"/>
<path style="fill:#eda0a2; stroke:none;" d="M379 42L380 43L379 42M393 48C410.989 47.9881 430.12 46.1471 448 48.2855C458.489 49.5399 468.52 55.9373 478 50C461.49 39.6236 434.666 42 416 42C407.276 42 398.693 40.1804 393 48M527 50L525 47L562 47C568.745 47 574.462 47.7243 579 42C564.334 42 549.665 41.8999 535 42.0008C530.247 42.0335 521.746 44.2586 527 50z"/>
<path style="fill:#c95e62; stroke:none;" d="M578 43L578 44L580 45L581 45L580 42L578 43z"/>
<path style="fill:#eda0a2; stroke:none;" d="M580 42L581 43L580 42z"/>
<path style="fill:#c95e62; stroke:none;" d="M21.3333 43.6667L21.6667 44.3333L21.3333 43.6667M44 43L45 44L44 43M54 43L55 44L54 43z"/>
<path style="fill:#eda0a2; stroke:none;" d="M55 43L56 44L55 43z"/>
<path style="fill:#c95e62; stroke:none;" d="M152 43L153 44L152 43M172 43L173 44L172 43M200 43L201 44L200 43z"/>
<path style="fill:#80090b; stroke:none;" d="M297 112L297 113L308 113L308 55C313.502 57.9249 317.648 60.8558 324 59L324 58C318.396 54.1878 309.16 50.1757 308 43C299.824 46.8586 301 54.1582 301 62L301 97C301 102.841 301.824 107.982 297 112z"/>
<path style="fill:#c95e62; stroke:none;" d="M376 43L375 45L376 43z"/>
<path style="fill:#80090b; stroke:none;" d="M357 199C366.785 192.31 363 175.676 363 165C363 132.686 362.398 100.308 363.005 68C363.221 56.4929 382.731 53.6757 379 43C373.172 45.241 359.11 52.2326 356.603 58.1852C352.249 68.5235 356 87.7706 356 99C356 132.39 357 165.643 357 199M579 43C569.423 50.9157 580.96 76.3618 584 87C590.619 110.163 596.371 133.668 602.37 157C605.523 169.261 607.058 187.257 613.854 197.961C617.153 203.156 623.406 206.987 628 211L559 212C562.164 219.455 572.136 217 579 217L638 217C637.554 203.268 620.114 199.602 617.015 187C608.965 154.262 599.672 121.803 591.884 89C588.694 75.562 587.031 54.2569 579 43z"/>
<path style="fill:#c95e62; stroke:none;" d="M43 44L44 45L43 44M53 44L54 45L53 44z"/>
<path style="fill:#80090b; stroke:none;" d="M171 44L137.754 83L124.628 100L125 113C138.662 101.376 147.991 79.8403 158.119 65C162.161 59.0767 169.75 51.0464 171 44z"/>
<path style="fill:#c95e62; stroke:none;" d="M199 44L200 45L199 44M52 45L53 46L52 45M151 45L152 46L151 45M171 45L172 46L171 45z"/>
<path style="fill:#eda0a2; stroke:none;" d="M380 45L381 46L380 45z"/>
<path style="fill:#c95e62; stroke:none;" d="M20 46L21 47L20 46z"/>
<path style="fill:#eda0a2; stroke:none;" d="M51 46L52 47L51 46z"/>
<path style="fill:#c95e62; stroke:none;" d="M150 46L151 47L150 46M170 46L168 52L169 52L170 46M199 46L200 47L199 46M302 46L303 47L302 46M372 46L373 47L372 46M380 46L381 47L380 46M574 46L575 47L574 46z"/>
<path style="fill:#eda0a2; stroke:none;" d="M581 46L582 47L581 46z"/>
<path style="fill:#c95e62; stroke:none;" d="M49 47L50 48L49 47z"/>
<path style="fill:#eda0a2; stroke:none;" d="M50 47L51 48L50 47z"/>
<path style="fill:#c95e62; stroke:none;" d="M201.667 47.3333L202.333 47.6667L201.667 47.3333M301 47L302 48L301 47M308 47L309 48L308 47M371 47L372 48L371 47M402 47L402 48L405 48L402 47M525 47L525 48L531 48L525 47z"/>
<path style="fill:#80090b; stroke:none;" d="M526 48L526 49C532.985 54.3214 537.646 60.8906 547 61C541.411 53.0663 535.898 47.2538 526 48z"/>
<path style="fill:#c95e62; stroke:none;" d="M534 47L534 48L574 48C563.488 43.589 545.434 47 534 47M581.333 47.6667L581.667 48.3333L581.333 47.6667M48 48L49 49L48 48M149 48L150 49L149 48z"/>
<path style="fill:#cb020e; stroke:none;" d="M204 48C208.375 53.4257 216.907 57.9201 218.682 65C221.23 75.1634 219 88.5218 219 99L219 172C219 187.797 221.629 198.729 208 209L208 210L277 210C281.975 210 296.543 213.726 299.972 209.397C302.895 205.706 301 195.513 301 191L301 143L300 143L281 200L246 200L246 133L264.996 134.028L279 149L279 108C269.848 115 263.238 127.548 249.148 121.397C244.414 119.33 246 111.135 246 107L246 73C246 69.1571 244.792 62.668 247.028 59.3179C249.431 55.7159 256.309 57 260 57C265.018 57 274.244 55.2384 278.61 58.0278C283.736 61.3035 285.956 72.6076 288.281 78C292.285 87.2884 296.12 96.6678 300 106L301 106L301 48L204 48M310 48L310 49L324.972 61.0401L326 90L326 159L326.397 195.907L308 210L308 211L397 211L397 143L396 143L381.424 185L374.775 198.972L357 200C357 164.311 356 128.723 356 93C356 84.0337 352.547 66.0297 357.028 58.1852C359.424 53.9898 365.91 51.2686 370 49L351 48L310 48z"/>
<path style="fill:#c95e62; stroke:none;" d="M380 48L381 49L380 48M393 48L395 50L393 48z"/>
<path style="fill:#80090b; stroke:none;" d="M394 48C400.094 56.2793 408.701 64.4411 419 61C412.258 51.6258 405.169 48 394 48z"/>
<path style="fill:#cb020e; stroke:none;" d="M406 48C409.857 53.4301 418.008 57.3267 419.682 64C422.011 73.2873 420 85.4288 420 95L420 161C420 171.571 423.397 189.107 419.397 198.895C417.178 204.324 407.775 207.21 403 210C412.013 213.782 425.476 210.456 435 210.039C455.851 209.126 473.212 209.324 489.961 194.561C521.314 166.924 519.764 97.3263 491.91 68.0147C470.08 45.0423 435.025 48 406 48z"/>
<path style="fill:#c95e62; stroke:none;" d="M428 48L429 49L428 48M430 48L430 49L450 49L430 48z"/>
<path style="fill:#cb020e; stroke:none;" d="M535 48L547.218 64L537.151 101L518.71 167L509.86 196.826L495 209L495 210L538 211L527.777 199.961L530.127 187L537 157L572 157L578 187L579.683 199.961L569 210L569 211L628 211L613.854 196.985L605.576 168L586.873 97L577.71 62L573.272 49.0278L562 48L535 48z"/>
<path style="fill:#c95e62; stroke:none;" d="M19 49L20 50L19 49M47 49L48 50L47 49M148 49L149 50L148 49z"/>
<path style="fill:#eda0a2; stroke:none;" d="M379 49L380 50L379 49z"/>
<path style="fill:#c95e62; stroke:none;" d="M453 49L453 50L457 50L453 49z"/>
<path style="fill:#eda0a2; stroke:none;" d="M46 50L47 51L46 50M168 50L169 51L168 50M196 50L195 52L196 50z"/>
<path style="fill:#c95e62; stroke:none;" d="M377 50L378 51L377 50z"/>
<path style="fill:#eda0a2; stroke:none;" d="M395 50L396 51L395 50z"/>
<path style="fill:#c95e62; stroke:none;" d="M459.667 50.3333L460.333 50.6667L459.667 50.3333z"/>
<path style="fill:#80090b; stroke:none;" d="M473 55C483.316 61.0849 492.328 67.737 498.91 78C520.196 111.191 518.046 172.761 485 197.761C462.037 215.133 428.257 211 401 211C407.712 187.346 404 159.505 404 135C395.366 140.975 397 148.448 397 158L397 211L307 211L308 136C299.855 139.922 301 145.957 301 154L301 192C301 196.457 302.962 207.116 298.682 209.972C293.781 213.242 281.782 210 276 210L231 210C224.252 210 215.583 208.549 209.055 210.318C204.547 211.539 203.513 217.195 202 221C198.71 229.275 195.722 237.67 192.576 246C191.358 249.228 190.371 253.913 186.867 255.397C182.504 257.244 175.667 256 171 256C158.603 256 146.358 255.171 133.985 255.011C91.3393 254.46 48.6501 255 6 255C9.52719 265.039 29.179 261 38 261L137 261L180 261C184.159 261 192.021 262.499 195.298 259.397C201.663 253.369 204.185 236.269 207.003 228C208.494 223.626 209.749 218 215.019 217.148C234.599 213.982 257.144 217 277 217L406 217C436.554 217 471.649 220.558 495.961 197.826C524.309 171.321 525.773 115.115 509.742 82C504.448 71.0654 497.306 61.5557 487 54.865C481.866 51.532 476.448 48.1848 473 55z"/>
<path style="fill:#c95e62; stroke:none;" d="M479 50L480 51L479 50M528 50L529 51L528 50z"/>
<path style="fill:#eda0a2; stroke:none;" d="M582 50L583 51L582 50z"/>
<path style="fill:#c95e62; stroke:none;" d="M18 51L19 52L18 51M147 51L148 52L147 51z"/>
<path style="fill:#eda0a2; stroke:none;" d="M167 51L126 114C144.26 106.398 149.749 86.5347 158.691 70C161.365 65.0571 167.914 56.594 167 51z"/>
<path style="fill:#fffefe; stroke:none;" d="M196 51L116 171L74 235L137 235C145.815 235 157.533 237.027 166 234.486C171.334 232.885 175.822 227.567 180 224.08C189.524 216.131 201.764 208.375 209.682 198.83C215.653 191.633 212 172.029 212 163L212 95C212 86.2618 214.434 73.2257 211.397 65C209.265 59.2268 201.377 53.4925 196 51z"/>
<path style="fill:#c95e62; stroke:none;" d="M376 51L377 52L376 51z"/>
<path style="fill:#eda0a2; stroke:none;" d="M396 51L397 52L396 51z"/>
<path style="fill:#c95e62; stroke:none;" d="M463 51L464 52L463 51M481 51L482 52L481 51M529 51L530 52L529 51M582 51L583 52L582 51M43 52L44 53L43 52M166 52L167 53L166 52M194 52L195 53L194 52M199 52L200 53L199 52z"/>
<path style="fill:#eda0a2; stroke:none;" d="M375 52L376 53L375 52M397 52L398 53L397 52z"/>
<path style="fill:#c95e62; stroke:none;" d="M466 52L467 53L466 52z"/>
<path style="fill:#eda0a2; stroke:none;" d="M483 52L484 53L483 52z"/>
<path style="fill:#c95e62; stroke:none;" d="M530 52L531 53L530 52M42 53L43 54L42 53M167 53L168 54L167 53z"/>
<path style="fill:#eda0a2; stroke:none;" d="M194 53L195 54L194 53z"/>
<path style="fill:#c95e62; stroke:none;" d="M200 53L201 54L200 53M373 53L374 54L373 53M399 53L400 54L399 53M469 53L470 54L469 53M484 53L485 54L484 53z"/>
<path style="fill:#eda0a2; stroke:none;" d="M485 53L486 54L485 53z"/>
<path style="fill:#c95e62; stroke:none;" d="M531 53L532 54L531 53M17 54L18 55L17 54z"/>
<path style="fill:#eda0a2; stroke:none;" d="M41 54L42 55L41 54z"/>
<path style="fill:#c95e62; stroke:none;" d="M145 54L146 55L145 54z"/>
<path style="fill:#eda0a2; stroke:none;" d="M193 54L194 55L193 54z"/>
<path style="fill:#c95e62; stroke:none;" d="M201 54L202 55L201 54M372 54L373 55L372 54M400 54L401 55L400 54M471 54L472 55L471 54M486 54L487 55L486 54z"/>
<path style="fill:#eda0a2; stroke:none;" d="M532 54L533 55L532 54M583 54L584 55L583 54M40 55L41 56L40 55z"/>
<path style="fill:#c95e62; stroke:none;" d="M164 55L165 56L164 55M166 55L167 56L166 55M192 55L193 56L192 55z"/>
<path style="fill:#eda0a2; stroke:none;" d="M202 55L203 56L202 55M308 55L309 56L308 55z"/>
<path style="fill:#c95e62; stroke:none;" d="M309 55L310 56L309 55z"/>
<path style="fill:#eda0a2; stroke:none;" d="M371 55L372 56L371 55M401 55L402 56L401 55M488 55L489 56L488 55M533 55L534 56L533 55z"/>
<path style="fill:#c95e62; stroke:none;" d="M583 55L584 56L583 55M16 56L16 59L17 59L16 56M38 56L39 57L38 56M163 56L164 57L163 56z"/>
<path style="fill:#eda0a2; stroke:none;" d="M192 56L193 57L192 56M203 56L204 57L203 56z"/>
<path style="fill:#fffefe; stroke:none;" d="M308 56C308 73.391 304.077 96.3456 309 113C283.573 119.054 288.15 77.7297 275.157 64.6034C271.345 60.7513 259.105 63 254 63L254 116C260.135 115.999 264.24 115.877 268.561 110.981C271.618 107.516 276.511 97.9672 281.463 97.3681C288.919 96.466 288 106.505 288 111L288 158L289 158C291.07 143.982 294.234 135 309 135C309 156.36 312.947 182.223 308 203C321.89 197.657 319 185.457 319 173C319 144.989 318 117.052 318 89C318 76.8751 322.381 60.2322 308 56z"/>
<path style="fill:#eda0a2; stroke:none;" d="M310 56L311 57L310 56z"/>
<path style="fill:#c95e62; stroke:none;" d="M369 56L370 57L369 56z"/>
<path style="fill:#eda0a2; stroke:none;" d="M402 56L403 57L402 56z"/>
<path style="fill:#c95e62; stroke:none;" d="M489 56L490 57L489 56z"/>
<path style="fill:#eda0a2; stroke:none;" d="M534 56L535 57L534 56z"/>
<path style="fill:#c95e62; stroke:none;" d="M27 57L28 58L27 57M37 57L38 58L37 57M143 57L144 58L143 57M191 57L192 58L191 57z"/>
<path style="fill:#80090b; stroke:none;" d="M246 121C258.1 113.922 253 89.4706 253 77C253 73.382 251.918 67.4799 254.028 64.3179C259.233 56.5178 273.419 66.9481 279 57C271.991 57 253.141 53.6417 247.603 58.0278C244.284 60.657 246 70.2138 246 74L246 121z"/>
<path style="fill:#c95e62; stroke:none;" d="M279 57L278 59L279 57M312 57L313 58L312 57M368 57L369 58L368 57z"/>
<path style="fill:#eda0a2; stroke:none;" d="M403 57L404 58L403 57z"/>
<path style="fill:#c95e62; stroke:none;" d="M446 57L453 65L446 57M490 57L491 58L490 57z"/>
<path style="fill:#eda0a2; stroke:none;" d="M584.333 57.6667L584.667 58.3333L584.333 57.6667M36 58L37 59L36 58z"/>
<path style="fill:#c95e62; stroke:none;" d="M142.333 58.6667L142.667 59.3333L142.333 58.6667M162 58L163 59L162 58M164 58L165 59L164 58M190 58L191 59L190 58M206 58L207 59L206 58z"/>
<path style="fill:#eda0a2; stroke:none;" d="M279 58C271.142 67.5312 285.467 89.6069 289.424 100C290.832 103.696 292.399 110.529 295.699 112.972C298.611 115.128 304.56 114 308 114L308 113L296 113L296 112C302.57 108.608 298.67 103.247 296.312 98C290.641 85.3847 287.365 69.0523 279 58z"/>
<path style="fill:#c95e62; stroke:none;" d="M314 58L315 59L314 58z"/>
<path style="fill:#eda0a2; stroke:none;" d="M367 58L368 59L367 58z"/>
<path style="fill:#c95e62; stroke:none;" d="M405 58L406 59L405 58z"/>
<path style="fill:#eda0a2; stroke:none;" d="M447 58C454.956 69.4871 453 81.3367 453 95L453 165C453 177.776 454.846 189.844 448 201C466.403 198.28 475.959 181.219 480.975 165C491.286 131.654 489.37 67.8069 447 58z"/>
<path style="fill:#c95e62; stroke:none;" d="M449.667 58.3333L450.333 58.6667L449.667 58.3333z"/>
<path style="fill:#eda0a2; stroke:none;" d="M492 58L493 59L492 58z"/>
<path style="fill:#c95e62; stroke:none;" d="M537 58L538 59L537 58M15.3333 59.6667L15.6667 60.3333L15.3333 59.6667z"/>
<path style="fill:#eda0a2; stroke:none;" d="M35 59L36 60L35 59z"/>
<path style="fill:#c95e62; stroke:none;" d="M161 59L162 60L161 59M207 59L208 60L207 59M280 59L281 60L280 59z"/>
<path style="fill:#eda0a2; stroke:none;" d="M315 59L316 60L315 59z"/>
<path style="fill:#c95e62; stroke:none;" d="M323 59L323 60L325 81L325 132L326 132L326 78C326 72.49 328.12 62.319 323 59M365 59L366 60L365 59z"/>
<path style="fill:#eda0a2; stroke:none;" d="M366 59L367 60L366 59z"/>
<path style="fill:#c95e62; stroke:none;" d="M406 59L407 60L406 59z"/>
<path style="fill:#80090b; stroke:none;" d="M446 59L447 200C456.242 193.113 453 178.354 453 168L453 89C453 78.2068 455.814 65.9956 446 59z"/>
<path style="fill:#c95e62; stroke:none;" d="M452 59L453 60L452 59z"/>
<path style="fill:#eda0a2; stroke:none;" d="M493 59L494 60L493 59z"/>
<path style="fill:#c95e62; stroke:none;" d="M538 59L539 60L538 59M584 59L585 60L584 59M33 60L34 61L33 60M141 60L142 61L141 60M163 60L164 61L163 60z"/>
<path style="fill:#eda0a2; stroke:none;" d="M189 60L190 61L189 60z"/>
<path style="fill:#c95e62; stroke:none;" d="M208 60L209 61L208 60M317.667 60.3333L318.333 60.6667L317.667 60.3333z"/>
<path style="fill:#eda0a2; stroke:none;" d="M307 210C312.345 207.472 323.06 202.641 325.397 196.896C329.584 186.6 326 168.119 326 157C326 124.688 325 92.3705 325 60C313.273 60.3851 318 85.1051 318 94C318 109.891 317.004 126.148 318.09 142C319.173 157.826 321.334 176.231 318.852 191.996C317.62 199.824 308.194 201.432 307 210z"/>
<path style="fill:#c95e62; stroke:none;" d="M364 60L365 61L364 60M407 60L408 61L407 60M455 60L456 61L455 60z"/>
<path style="fill:#eda0a2; stroke:none;" d="M494 60L495 61L494 60z"/>
<path style="fill:#c95e62; stroke:none;" d="M539 60L540 61L539 60M32 61L33 62L32 61M160 61L161 62L160 61M188 61L189 62L188 61z"/>
<path style="fill:#eda0a2; stroke:none;" d="M209 61L210 62L209 61z"/>
<path style="fill:#c95e62; stroke:none;" d="M281.333 61.6667L281.667 62.3333L281.333 61.6667z"/>
<path style="fill:#eda0a2; stroke:none;" d="M363 61L364 62L363 61M408 61L409 62L408 61z"/>
<path style="fill:#c95e62; stroke:none;" d="M417 61L418 62L417 61z"/>
<path style="fill:#eda0a2; stroke:none;" d="M418 61L411 64C413.692 75.3068 412 88.4116 412 100L412 167C412 177.357 416.114 195.053 405 200L405 134L404 134L402 210C406.971 208.191 417.127 204.511 418.682 198.896C421.263 189.575 419 176.672 419 167L419 99C419 88.1039 422.208 71.0275 418 61z"/>
<path style="fill:#c95e62; stroke:none;" d="M419 61L419 201L420 201L420 103C420 91.056 423.607 71.9799 419 61M457 61L458 62L457 61M495 61L496 62L495 61z"/>
<path style="fill:#eda0a2; stroke:none;" d="M540 61C541.257 73.168 533.694 88.2267 530.629 100C522.702 130.446 515.631 160.486 505.482 189.961C501.774 200.729 479.307 204.094 483 217C491.09 212.492 503.829 205.52 509.146 197.816C517.135 186.238 519.291 164.602 522.884 151C530.755 121.204 539.588 91.6444 548 62L540 61z"/>
<path style="fill:#c95e62; stroke:none;" d="M541 61L541 62L548 62L541 61z"/>
<path style="fill:#eda0a2; stroke:none;" d="M585.333 61.6667L585.667 62.3333L585.333 61.6667z"/>
<path style="fill:#c95e62; stroke:none;" d="M20 62L21 63L20 62z"/>
<path style="fill:#eda0a2; stroke:none;" d="M31 62L32 63L31 62z"/>
<path style="fill:#c95e62; stroke:none;" d="M162 62L163 63L162 62z"/>
<path style="fill:#eda0a2; stroke:none;" d="M188 62L189 63L188 62M210 62L211 63L210 62z"/>
<path style="fill:#c95e62; stroke:none;" d="M213 62L213 63L216 63L213 62z"/>
<path style="fill:#eda0a2; stroke:none;" d="M211 63C213.55 73.7123 212 86.0242 212 97L212 160C212 169.66 215.408 187.331 210.972 195.985C208.6 200.614 202.907 203.991 199 207.247C189.534 215.136 176.862 230.926 165 234.486C157.366 236.777 146.941 235 139 235C113.142 235 84.9483 231.029 61 241L61 242L134 242C143.731 242 157.779 244.585 167 241.411C176.9 238.004 186.857 226.315 195 219.8C201.514 214.589 213.059 208.441 216.972 200.961C221.873 191.592 218 171.529 218 161L218 62L211 63z"/>
<path style="fill:#c95e62; stroke:none;" d="M218 62L218 201L219 201L219 104C219 92.056 222.607 72.9799 218 62M254 62L254 63L275 63L254 62z"/>
<path style="fill:#eda0a2; stroke:none;" d="M409 62L410 63L409 62z"/>
<path style="fill:#c95e62; stroke:none;" d="M414.667 62.3333L415.333 62.6667L414.667 62.3333M459 62L460 63L459 62M496 62L497 63L496 62M14 63L15 64L14 63M19 63L20 64L19 63z"/>
<path style="fill:#eda0a2; stroke:none;" d="M30 63L31 64L30 63z"/>
<path style="fill:#c95e62; stroke:none;" d="M139 63L140 64L139 63z"/>
<path style="fill:#eda0a2; stroke:none;" d="M187 63L188 64L187 63M253 63L253 102C253 109.208 254.004 115.052 248 120L248 121L265.711 121.393L287 98C272.579 94.8717 269.598 115.988 254 116L254 80L253 63z"/>
<path style="fill:#c95e62; stroke:none;" d="M282.333 63.6667L282.667 64.3333L282.333 63.6667z"/>
<path style="fill:#eda0a2; stroke:none;" d="M410 63L411 64L410 63z"/>
<path style="fill:#c95e62; stroke:none;" d="M412 63L413 64L412 63M460 63L461 64L460 63z"/>
<path style="fill:#eda0a2; stroke:none;" d="M497 63L498 64L497 63z"/>
<path style="fill:#c95e62; stroke:none;" d="M547.333 63.6667L547.667 64.3333L547.333 63.6667M585 63L586 64L585 63M18 64L19 65L18 64M28 64L29 65L28 64M158 64L159 65L158 64M161 64L162 65L161 64M186 64L187 65L186 64z"/>
<path style="fill:#eda0a2; stroke:none;" d="M363 64L363 127L364 127L364 84L363 64M498 64L499 65L498 64z"/>
<path style="fill:#c95e62; stroke:none;" d="M13 65L14 66L13 65M27 65L28 66L27 65M157 65L158 66L157 65z"/>
<path style="fill:#eda0a2; stroke:none;" d="M186 65L187 66L186 65z"/>
<path style="fill:#c95e62; stroke:none;" d="M463 65L464 66L463 65z"/>
<path style="fill:#eda0a2; stroke:none;" d="M499 65L500 66L499 65M586.333 65.6667L586.667 66.3333L586.333 65.6667M26 66L27 67L26 66z"/>
<path style="fill:#c95e62; stroke:none;" d="M137 66L138 67L137 66M160 66L161 67L160 66M185 66L186 67L185 66M283 66L284 67L283 66z"/>
<path style="fill:#fffefe; stroke:none;" d="M454 66L454 194C482.857 177.32 481.943 123.703 474 96C470.775 84.7506 466.344 69.9527 454 66z"/>
<path style="fill:#c95e62; stroke:none;" d="M464 66L465 67L464 66z"/>
<path style="fill:#eda0a2; stroke:none;" d="M500 66L501 67L500 66M25 67L26 68L25 67z"/>
<path style="fill:#c95e62; stroke:none;" d="M156 67L157 68L156 67M184 67L185 68L184 67M465 67L466 68L465 67M546.333 67.6667L546.667 68.3333L546.333 67.6667M586.333 67.6667L586.667 68.3333L586.333 67.6667M12 68L13 69L12 68M23 68L24 69L23 68z"/>
<path style="fill:#eda0a2; stroke:none;" d="M24 68L25 69L24 68z"/>
<path style="fill:#c95e62; stroke:none;" d="M136 68L137 69L136 68M155 68L156 69L155 68M159 68L160 69L159 68M466 68L467 69L466 68M501 68L502 69L501 68M22 69L23 70L22 69M135 69L136 70L135 69z"/>
<path style="fill:#eda0a2; stroke:none;" d="M183 69L184 70L183 69z"/>
<path style="fill:#c95e62; stroke:none;" d="M284 69L285 70L284 69M467 69L468 70L467 69M502 69L503 70L502 69z"/>
<path style="fill:#eda0a2; stroke:none;" d="M587.333 69.6667L587.667 70.3333L587.333 69.6667z"/>
<path style="fill:#c95e62; stroke:none;" d="M10 70L11 71L10 70z"/>
<path style="fill:#eda0a2; stroke:none;" d="M21 70L22 71L21 70z"/>
<path style="fill:#c95e62; stroke:none;" d="M154 70L155 71L154 70M158 70L159 71L158 70M182 70L183 71L182 70M468 70L469 71L468 70z"/>
<path style="fill:#eda0a2; stroke:none;" d="M503 70L504 71L503 70z"/>
<path style="fill:#c95e62; stroke:none;" d="M545.333 70.6667L545.667 71.3333L545.333 70.6667M9 71L10 72L9 71z"/>
<path style="fill:#eda0a2; stroke:none;" d="M20 71L21 72L20 71z"/>
<path style="fill:#c95e62; stroke:none;" d="M134 71L135 72L134 71z"/>
<path style="fill:#eda0a2; stroke:none;" d="M182 71L183 72L182 71z"/>
<path style="fill:#c95e62; stroke:none;" d="M285 71L286 72L285 71M469 71L470 72L469 71M587 71L588 72L587 71M8 72L9 73L8 72M18 72L19 73L18 72M133 72L134 73L133 72M157 72L158 73L157 72z"/>
<path style="fill:#eda0a2; stroke:none;" d="M181 72L182 73L181 72z"/>
<path style="fill:#c95e62; stroke:none;" d="M470 72L471 73L470 72M504 72L505 73L504 72M6 73L7 74L6 73M17 73L18 74L17 73M152 73L153 74L152 73M156.333 73.6667L156.667 74.3333L156.333 73.6667M180 73L181 74L180 73M286 73L287 74L286 73z"/>
<path style="fill:#eda0a2; stroke:none;" d="M505 73L506 74L505 73M588.333 73.6667L588.667 74.3333L588.333 73.6667z"/>
<path style="fill:#c95e62; stroke:none;" d="M5 74L6 75L5 74z"/>
<path style="fill:#eda0a2; stroke:none;" d="M16 74L17 75L16 74z"/>
<path style="fill:#c95e62; stroke:none;" d="M132 74L133 75L132 74M151 74L152 75L151 74z"/>
<path style="fill:#eda0a2; stroke:none;" d="M180 74L181 75L180 74z"/>
<path style="fill:#c95e62; stroke:none;" d="M471 74L472 75L471 74M544 74L545 75L544 74M4 75L5 76L4 75z"/>
<path style="fill:#eda0a2; stroke:none;" d="M15 75L16 76L15 75z"/>
<path style="fill:#c95e62; stroke:none;" d="M131 75L132 76L131 75M155.333 75.6667L155.667 76.3333L155.333 75.6667M179 75L180 76L179 75M472 75L473 76L472 75M506 75L507 76L506 75M588 75L589 76L588 75M150 76L151 77L150 76M287 76L288 77L287 76M1 77L2 78L1 77M12 77L13 78L12 77M130 77L131 78L130 77M149 77L150 78L149 77M154.333 77.6667L154.667 78.3333L154.333 77.6667M473 77L474 78L473 77M507 77L508 78L507 77M543.333 77.6667L543.667 78.3333L543.333 77.6667z"/>
<path style="fill:#eda0a2; stroke:none;" d="M589 77L590 78L589 77z"/>
<path style="fill:#c95e62; stroke:none;" d="M11 78L12 79L11 78M129 78L130 79L129 78z"/>
<path style="fill:#eda0a2; stroke:none;" d="M177 78L178 79L177 78z"/>
<path style="fill:#c95e62; stroke:none;" d="M288.333 78.6667L288.667 79.3333L288.333 78.6667M474 78L475 79L474 78z"/>
<path style="fill:#eda0a2; stroke:none;" d="M508 78L509 79L508 78z"/>
<path style="fill:#c95e62; stroke:none;" d="M589.333 78.6667L589.667 79.3333L589.333 78.6667z"/>
<path style="fill:#eda0a2; stroke:none;" d="M1 79L2 80L1 79M10 79L11 80L10 79z"/>
<path style="fill:#c95e62; stroke:none;" d="M148 79L149 80L148 79M153 79L154 80L153 79M176 79L177 80L176 79M508 79L509 80L508 79z"/>
<path style="fill:#eda0a2; stroke:none;" d="M2 80L3 81L2 80z"/>
<path style="fill:#c95e62; stroke:none;" d="M8 80L9 81L8 80z"/>
<path style="fill:#eda0a2; stroke:none;" d="M9 80L10 81L9 80z"/>
<path style="fill:#c95e62; stroke:none;" d="M128 80L129 81L128 80z"/>
<path style="fill:#eda0a2; stroke:none;" d="M176 80L177 81L176 80z"/>
<path style="fill:#c95e62; stroke:none;" d="M289.333 80.6667L289.667 81.3333L289.333 80.6667M475 80L476 81L475 80z"/>
<path style="fill:#eda0a2; stroke:none;" d="M509 80L510 81L509 80z"/>
<path style="fill:#c95e62; stroke:none;" d="M542 80L542 83L543 83L542 80z"/>
<path style="fill:#eda0a2; stroke:none;" d="M3 81L4 82L3 81z"/>
<path style="fill:#c95e62; stroke:none;" d="M7 81L8 82L7 81M127 81L128 82L127 81M152 81L153 82L152 81z"/>
<path style="fill:#eda0a2; stroke:none;" d="M175 81L176 82L175 81z"/>
<path style="fill:#c95e62; stroke:none;" d="M509 81L510 82L509 81z"/>
<path style="fill:#eda0a2; stroke:none;" d="M590 81L591 82L590 81M4 82L5 83L4 82M6 82L7 83L6 82z"/>
<path style="fill:#c95e62; stroke:none;" d="M146 82L147 83L146 82M174 82L175 83L174 82M476 82L477 83L476 82z"/>
<path style="fill:#eda0a2; stroke:none;" d="M510 82L511 83L510 82z"/>
<path style="fill:#c95e62; stroke:none;" d="M590 82L591 83L590 82M126 83L127 84L126 83M151 83L152 84L151 83z"/>
<path style="fill:#eda0a2; stroke:none;" d="M174 83L175 84L174 83z"/>
<path style="fill:#c95e62; stroke:none;" d="M290 83L291 84L290 83M510 83L511 84L510 83M125 84L126 85L125 84M173 84L174 85L173 84M477 84L478 85L477 84z"/>
<path style="fill:#eda0a2; stroke:none;" d="M511 84L512 85L511 84z"/>
<path style="fill:#c95e62; stroke:none;" d="M541 84L541 87L542 87L541 84M144 85L145 86L144 85M150 85L151 86L150 85M172 85L173 86L172 85M291.333 85.6667L291.667 86.3333L291.333 85.6667M511 85L512 86L511 85z"/>
<path style="fill:#eda0a2; stroke:none;" d="M591 85L592 86L591 85z"/>
<path style="fill:#c95e62; stroke:none;" d="M124 86L125 87L124 86M143 86L144 87L143 86z"/>
<path style="fill:#eda0a2; stroke:none;" d="M172 86L173 87L172 86z"/>
<path style="fill:#c95e62; stroke:none;" d="M478.333 86.6667L478.667 87.3333L478.333 86.6667M591.333 86.6667L591.667 87.3333L591.333 86.6667M123 87L124 88L123 87M149 87L150 88L149 87z"/>
<path style="fill:#eda0a2; stroke:none;" d="M171 87L172 88L171 87M512 87L513 88L512 87z"/>
<path style="fill:#c95e62; stroke:none;" d="M142 88L143 89L142 88M170 88L171 89L170 88M292 88L293 89L292 88M512 88L513 89L512 88M540.333 88.6667L540.667 89.3333L540.333 88.6667z"/>
<path style="fill:#eda0a2; stroke:none;" d="M592.333 88.6667L592.667 89.3333L592.333 88.6667z"/>
<path style="fill:#c95e62; stroke:none;" d="M122 89L123 90L122 89M148 89L149 90L148 89M479 89L480 90L479 89z"/>
<path style="fill:#eda0a2; stroke:none;" d="M169 90L170 91L169 90z"/>
<path style="fill:#c95e62; stroke:none;" d="M293 90L294 91L293 90M513 90L514 91L513 90M592.333 90.6667L592.667 91.3333L592.333 90.6667M140 91L141 92L140 91M147 91L148 92L147 91M168 91L169 92L168 91M120 92L121 93L120 92M139 92L140 93L139 92z"/>
<path style="fill:#eda0a2; stroke:none;" d="M168 92L169 93L168 92z"/>
<path style="fill:#c95e62; stroke:none;" d="M294.333 92.6667L294.667 93.3333L294.333 92.6667M480 92L481 93L480 92z"/>
<path style="fill:#eda0a2; stroke:none;" d="M514 92L515 93L514 92z"/>
<path style="fill:#c95e62; stroke:none;" d="M539 92L540 93L539 92z"/>
<path style="fill:#eda0a2; stroke:none;" d="M593.333 92.6667L593.667 93.3333L593.333 92.6667z"/>
<path style="fill:#c95e62; stroke:none;" d="M119 93L120 94L119 93M146 93L147 94L146 93M167 93L168 94L167 93M514 93L515 94L514 93M138 94L139 95L138 94M166 94L167 95L166 94M593.333 94.6667L593.667 95.3333L593.333 94.6667M118 95L119 96L118 95M137 95L138 96L137 95M145 95L146 96L145 95z"/>
<path style="fill:#eda0a2; stroke:none;" d="M166 95L167 96L166 95z"/>
<path style="fill:#c95e62; stroke:none;" d="M295.333 95.6667L295.667 96.3333L295.333 95.6667M481 95L482 96L481 95z"/>
<path style="fill:#eda0a2; stroke:none;" d="M515.333 95.6667L515.667 96.3333L515.333 95.6667z"/>
<path style="fill:#c95e62; stroke:none;" d="M538.333 95.6667L538.667 96.3333L538.333 95.6667M555 95L555 113L556 113L555 95M117 96L118 97L117 96M144 96L145 97L144 96M165 96L166 97L165 96M136 97L137 98L136 97M164 97L165 98L164 97M515 97L516 98L515 97z"/>
<path style="fill:#eda0a2; stroke:none;" d="M594 97L595 98L594 97z"/>
<path style="fill:#c95e62; stroke:none;" d="M116 98L117 99L116 98M135 98L136 99L135 98M143.333 98.6667L143.667 99.3333L143.333 98.6667z"/>
<path style="fill:#eda0a2; stroke:none;" d="M164 98L165 99L164 98z"/>
<path style="fill:#c95e62; stroke:none;" d="M296 98L297 99L296 98M482.333 98.6667L482.667 99.3333L482.333 98.6667M537.333 98.6667L537.667 99.3333L537.333 98.6667z"/>
<path style="fill:#80090b; stroke:none;" d="M554 98L541 144C553.886 138.991 559.018 109.959 554 98z"/>
<path style="fill:#eda0a2; stroke:none;" d="M556 98L554 122L555 122L555 120L556 120L561 139L549 138L542 144L542 145L569 145L556 98z"/>
<path style="fill:#c95e62; stroke:none;" d="M594.333 98.6667L594.667 99.3333L594.333 98.6667z"/>
<path style="fill:#eda0a2; stroke:none;" d="M163 99L164 100L163 99z"/>
<path style="fill:#c95e62; stroke:none;" d="M285 101L288 100L285 101z"/>
<path style="fill:#eda0a2; stroke:none;" d="M516 99L517 100L516 99z"/>
<path style="fill:#c95e62; stroke:none;" d="M134 100L135 101L134 100M142.333 100.667L142.667 101.333L142.333 100.667M162 100L163 101L162 100z"/>
<path style="fill:#80090b; stroke:none;" d="M286 100C273.823 109.388 279 134.767 279 149L265.985 134.028L246 133L246 199C260.558 189.047 248.146 158.245 252.318 143.059C255.45 131.658 267.958 146.274 270.495 150L278 161L287 159L287 119L286 100z"/>
<path style="fill:#eda0a2; stroke:none;" d="M287 100C287 123.824 290.565 150.305 283 173C281.204 178.388 279.845 188.536 275.49 192.397C267.314 199.646 254.939 189.096 247 200C254.396 200 273.343 203.438 279.298 198.972C283.134 196.095 284.843 186.426 286.333 182C291.002 168.129 294.629 144.658 307 136L307 135C293.443 135 290.126 145.099 289 158L288 158L288 119L287 100z"/>
<path style="fill:#c95e62; stroke:none;" d="M297 100L298 101L297 100M516 100L516 103L517 103L516 100M557.333 100.667L557.667 101.333L557.333 100.667M114 101L115 102L114 101z"/>
<path style="fill:#eda0a2; stroke:none;" d="M162 101L163 102L162 101M595 101L596 102L595 101z"/>
<path style="fill:#c95e62; stroke:none;" d="M141 102L142 103L141 102M161 102L162 103L161 102M298 102L299 103L298 102M483 102L483 105L484 105L483 102M536.333 102.667L536.667 103.333L536.333 102.667M595 102L596 103L595 102M132 103L133 104L132 103M160 103L161 104L160 103M281 103L282 104L281 103z"/>
<path style="fill:#eda0a2; stroke:none;" d="M517.333 103.667L517.667 104.333L517.333 103.667z"/>
<path style="fill:#c95e62; stroke:none;" d="M112 104L113 105L112 104M131 104L132 105L131 104M140 104L141 105L140 104z"/>
<path style="fill:#eda0a2; stroke:none;" d="M160 104L161 105L160 104z"/>
<path style="fill:#c95e62; stroke:none;" d="M280 104L281 105L280 104M299 104L300 105L299 104M558.333 104.667L558.667 105.333L558.333 104.667M111.333 105.667L111.667 106.333L111.333 105.667M159 105L160 106L159 105M279 105L280 106L279 105M517 105L517 108L518 108L517 105M535 105L535 108L536 108L535 105z"/>
<path style="fill:#eda0a2; stroke:none;" d="M596 105L597 106L596 105z"/>
<path style="fill:#c95e62; stroke:none;" d="M130 106L131 107L130 106M139 106L140 107L139 106M158 106L159 107L158 106M300.333 106.667L300.667 107.333L300.333 106.667M596 106L597 107L596 106M110 107L111 108L110 107M129 107L130 108L129 107z"/>
<path style="fill:#eda0a2; stroke:none;" d="M158 107L159 108L158 107z"/>
<path style="fill:#c95e62; stroke:none;" d="M278 107L279 108L278 107M484 107L484 112L485 112L484 107M559.333 107.667L559.667 108.333L559.333 107.667M137 108L138 109L137 108z"/>
<path style="fill:#eda0a2; stroke:none;" d="M157 108L158 109L157 108z"/>
<path style="fill:#c95e62; stroke:none;" d="M277 108L278 109L277 108z"/>
<path style="fill:#eda0a2; stroke:none;" d="M597.333 108.667L597.667 109.333L597.333 108.667z"/>
<path style="fill:#c95e62; stroke:none;" d="M128 109L129 110L128 109M135 109L136 110L135 109M156 109L157 110L156 109M276 109L277 110L276 109M300 109L301 110L300 109z"/>
<path style="fill:#eda0a2; stroke:none;" d="M518.333 109.667L518.667 110.333L518.333 109.667z"/>
<path style="fill:#c95e62; stroke:none;" d="M534.333 109.667L534.667 110.333L534.333 109.667M108 110L109 111L108 110M133 110L134 111L133 110z"/>
<path style="fill:#eda0a2; stroke:none;" d="M156 110L157 111L156 110z"/>
<path style="fill:#c95e62; stroke:none;" d="M275 110L276 111L275 110M299 110L300 111L299 110M597 110L598 111L597 110M131 111L132 112L131 111M155 111L156 112L155 111M298 111L299 112L298 111M518 111L518 115L519 115L518 111M560 111L560 114L561 114L560 111M126 112L127 113L126 112M129 112L130 113L129 112M154 112L155 113L154 112M274 112L275 113L274 112M296 112L297 113L296 112z"/>
<path style="fill:#eda0a2; stroke:none;" d="M308 112L309 113L308 112M598.333 112.667L598.667 113.333L598.333 112.667z"/>
<path style="fill:#c95e62; stroke:none;" d="M106 113L107 114L106 113M125 113L126 114L125 113M127 113L128 114L127 113z"/>
<path style="fill:#eda0a2; stroke:none;" d="M154 113L155 114L154 113z"/>
<path style="fill:#c95e62; stroke:none;" d="M273 113L274 114L273 113M533.333 113.667L533.667 114.333L533.333 113.667M105.333 114.667L105.667 115.333L105.333 114.667M153 114L154 115L153 114M272 114L273 115L272 114M485 114L485 123L486 123L485 114M598 114L599 115L598 114M271 115L272 116L271 115M561 115L561 118L562 118L561 115M104 116L105 117L104 116z"/>
<path style="fill:#eda0a2; stroke:none;" d="M152 116L153 117L152 116z"/>
<path style="fill:#c95e62; stroke:none;" d="M252 116L253 117L252 116z"/>
<path style="fill:#eda0a2; stroke:none;" d="M599.333 116.667L599.667 117.333L599.333 116.667M151 117L152 118L151 117z"/>
<path style="fill:#c95e62; stroke:none;" d="M251 117L252 118L251 117M532 117L533 118L532 117M103 118L104 119L103 118M150 118L151 119L150 118M250 118L251 119L250 118M269 118L270 119L269 118z"/>
<path style="fill:#eda0a2; stroke:none;" d="M519 118L519 124L520 124L519 118z"/>
<path style="fill:#c95e62; stroke:none;" d="M599 118L600 119L599 118M102 119L103 120L102 119z"/>
<path style="fill:#eda0a2; stroke:none;" d="M150 119L151 120L150 119z"/>
<path style="fill:#c95e62; stroke:none;" d="M248 119L249 120L248 119M268 119L269 120L268 119M554 119L555 120L554 119M562.333 119.667L562.667 120.333L562.333 119.667M149 120L150 121L149 120M247 120L260 122L260 121L247 120M267 120L268 121L267 120M531.333 120.667L531.667 121.333L531.333 120.667z"/>
<path style="fill:#fffefe; stroke:none;" d="M555 120L550 139L561 139L555 120z"/>
<path style="fill:#eda0a2; stroke:none;" d="M600.333 120.667L600.667 121.333L600.333 120.667z"/>
<path style="fill:#c95e62; stroke:none;" d="M148 121L149 122L148 121M100 122L101 123L100 122z"/>
<path style="fill:#eda0a2; stroke:none;" d="M148 122L149 123L148 122z"/>
<path style="fill:#c95e62; stroke:none;" d="M553.333 122.667L553.667 123.333L553.333 122.667M600 122L601 123L600 122M147 123L148 124L147 123M530 123L530 126L531 126L530 123M563.333 123.667L563.667 124.333L563.333 123.667M99 124L100 125L99 124M519 124L519 127L520 127L519 124z"/>
<path style="fill:#eda0a2; stroke:none;" d="M553 124L554 125L553 124M601.333 124.667L601.667 125.333L601.333 124.667z"/>
<path style="fill:#c95e62; stroke:none;" d="M98 125L99 126L98 125z"/>
<path style="fill:#eda0a2; stroke:none;" d="M146 125L147 126L146 125z"/>
<path style="fill:#80090b; stroke:none;" d="M116 126L102 132L104 144L105 144L109 136L118 139L116 126z"/>
<path style="fill:#c95e62; stroke:none;" d="M145 126L146 127L145 126M552 126L553 127L552 126M601 126L602 127L601 126M97 127L98 128L97 127M144 127L145 128L144 127M363 127L363 195L364 195L364 148L363 127z"/>
<path style="fill:#eda0a2; stroke:none;" d="M519 127L519 130L520 130L519 127z"/>
<path style="fill:#c95e62; stroke:none;" d="M529.333 127.667L529.667 128.333L529.333 127.667z"/>
<path style="fill:#eda0a2; stroke:none;" d="M552 127L553 128L552 127z"/>
<path style="fill:#c95e62; stroke:none;" d="M564.333 127.667L564.667 128.333L564.333 127.667M96 128L97 129L96 128z"/>
<path style="fill:#eda0a2; stroke:none;" d="M144 128L145 129L144 128M602 128L603 129L602 128z"/>
<path style="fill:#c95e62; stroke:none;" d="M143 129L144 130L143 129M602.333 129.667L602.667 130.333L602.333 129.667M95 130L96 131L95 130M142 130L143 131L142 130M519 130L520 131L519 130M551 130L552 131L551 130M94 131L95 132L94 131z"/>
<path style="fill:#eda0a2; stroke:none;" d="M142 131L143 132L142 131M519 131L519 135L520 135L519 131z"/>
<path style="fill:#c95e62; stroke:none;" d="M528.333 131.667L528.667 132.333L528.333 131.667z"/>
<path style="fill:#eda0a2; stroke:none;" d="M551 131L552 132L551 131z"/>
<path style="fill:#c95e62; stroke:none;" d="M565 131L566 132L565 131M141 132L142 133L141 132z"/>
<path style="fill:#eda0a2; stroke:none;" d="M603 132L604 133L603 132z"/>
<path style="fill:#c95e62; stroke:none;" d="M93 133L94 134L93 133M550 133L551 134L550 133M603 133L604 134L603 133M92 134L93 135L92 134z"/>
<path style="fill:#eda0a2; stroke:none;" d="M140 134L141 135L140 134M358 200C362.661 200 370.645 201.527 374.722 198.972C379.62 195.903 381.582 184.234 383.333 179C388.644 163.128 393.436 147.644 403 134L392.51 135.028L386.333 150L372.291 189.941L358 200z"/>
<path style="fill:#c95e62; stroke:none;" d="M403 134L404 135L403 134M527.333 134.667L527.667 135.333L527.333 134.667z"/>
<path style="fill:#eda0a2; stroke:none;" d="M550 134L551 135L550 134z"/>
<path style="fill:#c95e62; stroke:none;" d="M566 134L566 137L567 137L566 134M139 135L140 136L139 135M307 135L308 136L307 135z"/>
<path style="fill:#eda0a2; stroke:none;" d="M308 135L308 202L309 202L309 156L308 135z"/>
<path style="fill:#c95e62; stroke:none;" d="M402 135L403 136L402 135M91 136L92 137L91 136M109 136L109 137L112 137L109 136M138 136L139 137L138 136M306 136L307 137L306 136M401 136L402 137L401 136M549.333 136.667L549.667 137.333L549.333 136.667z"/>
<path style="fill:#eda0a2; stroke:none;" d="M604 136L605 137L604 136z"/>
<path style="fill:#c95e62; stroke:none;" d="M90 137L91 138L90 137z"/>
<path style="fill:#eda0a2; stroke:none;" d="M105 144L117 140C111.388 135.539 108.084 138.533 105 144z"/>
<path style="fill:#c95e62; stroke:none;" d="M113 137L114 138L113 137z"/>
<path style="fill:#eda0a2; stroke:none;" d="M138 137L139 138L138 137z"/>
<path style="fill:#c95e62; stroke:none;" d="M304 137L305 138L304 137M400 137L401 138L400 137M485 137L485 144L486 144L485 137M604.333 137.667L604.667 138.333L604.333 137.667M108 138L109 139L108 138M115 138L116 139L115 138M137 138L138 139L137 138M303 138L304 139L303 138M399 138L400 139L399 138M526.333 138.667L526.667 139.333L526.333 138.667M567 138L567 141L568 141L567 138M89 139L90 140L89 139M107 139L108 140L107 139M136 139L137 140L136 139M252 194L253 194L253 140L260 140C251.561 136.497 252 145.143 252 151L252 194M301 139L302 140L301 139M398 139L399 140L398 139M548 139L549 140L548 139z"/>
<path style="fill:#eda0a2; stroke:none;" d="M605.333 139.667L605.667 140.333L605.333 139.667z"/>
<path style="fill:#c95e62; stroke:none;" d="M88 140L89 141L88 140M115 140L116 141L115 140z"/>
<path style="fill:#eda0a2; stroke:none;" d="M136 140L137 141L136 140z"/>
<path style="fill:#fffefe; stroke:none;" d="M253 140L253 194C258.658 194 270.752 196.299 275.49 192.972C282.282 188.203 285.444 166.855 288 159L278 162C272.403 150.702 266.309 140.001 253 140z"/>
<path style="fill:#eda0a2; stroke:none;" d="M263 140L264 141L263 140z"/>
<path style="fill:#c95e62; stroke:none;" d="M547 140L548 141L547 140M106 141L107 142L106 141M112 141L113 142L112 141M135 141L136 142L135 141z"/>
<path style="fill:#eda0a2; stroke:none;" d="M264 141L265 142L264 141z"/>
<path style="fill:#c95e62; stroke:none;" d="M300.333 141.667L300.667 142.333L300.333 141.667M396.333 141.667L396.667 142.333L396.333 141.667M518 141L518 147L519 147L518 141M525.333 141.667L525.667 142.333L525.333 141.667M605.333 141.667L605.667 142.333L605.333 141.667M87 142L88 143L87 142M105 142L106 143L105 142M110 142L111 143L110 142M265 142L266 143L265 142M544 142L545 143L544 142M568.333 142.667L568.667 143.333L568.333 142.667M86 143L87 144L86 143M107.667 143.333L108.333 143.667L107.667 143.333z"/>
<path style="fill:#eda0a2; stroke:none;" d="M134 143L135 144L134 143z"/>
<path style="fill:#c95e62; stroke:none;" d="M543 143L544 144L543 143z"/>
<path style="fill:#eda0a2; stroke:none;" d="M606.333 143.667L606.667 144.333L606.333 143.667z"/>
<path style="fill:#c95e62; stroke:none;" d="M104 144L104 145L107 145L104 144M133 144L134 145L133 144z"/>
<path style="fill:#eda0a2; stroke:none;" d="M266 144L267 145L266 144z"/>
<path style="fill:#c95e62; stroke:none;" d="M299 144L300 145L299 144M395.333 144.667L395.667 145.333L395.333 144.667M541 144L542 145L541 144M85 145L86 146L85 145M132 145L133 146L132 145M267 145L268 146L267 145M524.333 145.667L524.667 146.333L524.333 145.667M606.333 145.667L606.667 146.333L606.333 145.667z"/>
<path style="fill:#eda0a2; stroke:none;" d="M132 146L133 147L132 146z"/>
<path style="fill:#c95e62; stroke:none;" d="M131 147L132 148L131 147z"/>
<path style="fill:#eda0a2; stroke:none;" d="M268 147L269 148L268 147z"/>
<path style="fill:#c95e62; stroke:none;" d="M298 147L299 148L298 147M394.333 147.667L394.667 148.333L394.333 147.667M484 147L484 152L485 152L484 147M83 148L84 149L83 148M130 148L131 149L130 148M269 148L270 149L269 148M523 148L523 151L524 151L523 148z"/>
<path style="fill:#eda0a2; stroke:none;" d="M607 148L608 149L607 148M130 149L131 150L130 149z"/>
<path style="fill:#c95e62; stroke:none;" d="M270 149L271 150L270 149M297.333 149.667L297.667 150.333L297.333 149.667M607 149L608 150L607 149M129 150L130 151L129 150z"/>
<path style="fill:#eda0a2; stroke:none;" d="M270 150L271 151L270 150z"/>
<path style="fill:#c95e62; stroke:none;" d="M393 150L394 151L393 150M81 151L82 152L81 151M271 151L272 152L271 151M517 151L517 156L518 156L517 151M80 152L81 153L80 152z"/>
<path style="fill:#eda0a2; stroke:none;" d="M128 152L129 153L128 152z"/>
<path style="fill:#c95e62; stroke:none;" d="M296.333 152.667L296.667 153.333L296.333 152.667M522.333 152.667L522.667 153.333L522.333 152.667z"/>
<path style="fill:#eda0a2; stroke:none;" d="M608 152L609 153L608 152z"/>
<path style="fill:#c95e62; stroke:none;" d="M127 153L128 154L127 153M392 153L393 154L392 153M608 153L609 154L608 153M79 154L80 155L79 154z"/>
<path style="fill:#eda0a2; stroke:none;" d="M273 154L274 155L273 154z"/>
<path style="fill:#c95e62; stroke:none;" d="M483 154L483 157L484 157L483 154M78 155L79 156L78 155z"/>
<path style="fill:#eda0a2; stroke:none;" d="M126 155L127 156L126 155z"/>
<path style="fill:#c95e62; stroke:none;" d="M274 155L275 156L274 155M295.333 155.667L295.667 156.333L295.333 155.667M391.333 155.667L391.667 156.333L391.333 155.667M125 156L126 157L125 156z"/>
<path style="fill:#eda0a2; stroke:none;" d="M274 156L275 157L274 156z"/>
<path style="fill:#c95e62; stroke:none;" d="M521.333 156.667L521.667 157.333L521.333 156.667z"/>
<path style="fill:#eda0a2; stroke:none;" d="M609 156L610 157L609 156z"/>
<path style="fill:#c95e62; stroke:none;" d="M77 157L78 158L77 157M124 157L125 158L124 157z"/>
<path style="fill:#eda0a2; stroke:none;" d="M275 157L276 158L275 157z"/>
<path style="fill:#c95e62; stroke:none;" d="M516 157L516 160L517 160L516 157z"/>
<path style="fill:#80090b; stroke:none;" d="M537 157L529.627 188L527.643 200.91L538 211C521.151 211 499.115 205.98 485 216L485 217L547 217C548.573 206.764 537.567 206.441 534.492 198.41C533.521 195.874 535.007 192.476 535.627 190C537.259 183.47 538.48 168.134 543.514 163.603C550.909 156.947 562.785 166.471 570 157L537 157z"/>
<path style="fill:#c95e62; stroke:none;" d="M543 162L543 163L572 159L572 158L563 161.683L543 162M609 157L610 158L609 157z"/>
<path style="fill:#eda0a2; stroke:none;" d="M124 158L125 159L124 158z"/>
<path style="fill:#c95e62; stroke:none;" d="M276 158L277 159L276 158M294.333 158.667L294.667 159.333L294.333 158.667M390.333 158.667L390.667 159.333L390.333 158.667z"/>
<path style="fill:#eda0a2; stroke:none;" d="M570 158C560.734 168.993 573.895 183.562 572.393 196C571.641 202.223 563.494 206.253 560 211C582.856 210.982 578.93 192.873 575.424 177C574.102 171.012 573.928 162.799 570 158z"/>
<path style="fill:#c95e62; stroke:none;" d="M123 159L124 160L123 159M284 159L285 160L284 159z"/>
<path style="fill:#eda0a2; stroke:none;" d="M285 159L286 160L285 159z"/>
<path style="fill:#c95e62; stroke:none;" d="M482.333 159.667L482.667 160.333L482.333 159.667M520.333 159.667L520.667 160.333L520.333 159.667z"/>
<path style="fill:#eda0a2; stroke:none;" d="M610.333 159.667L610.667 160.333L610.333 159.667z"/>
<path style="fill:#c95e62; stroke:none;" d="M75 160L76 161L75 160z"/>
<path style="fill:#80090b; stroke:none;" d="M47 229L48 229C61.1368 210.658 80.0063 189.09 88 168L96 171L96 160L81.6343 165.652L71 184L47 229z"/>
<path style="fill:#c95e62; stroke:none;" d="M122 160L123 161L122 160z"/>
<path style="fill:#eda0a2; stroke:none;" d="M277 160L278 161L277 160z"/>
<path style="fill:#c95e62; stroke:none;" d="M280 160L281 161L280 160z"/>
<path style="fill:#eda0a2; stroke:none;" d="M281.667 160.333L282.333 160.667L281.667 160.333M122 161L123 162L122 161M278 161L279 162L278 161z"/>
<path style="fill:#c95e62; stroke:none;" d="M293.333 161.667L293.667 162.333L293.333 161.667M389.333 161.667L389.667 162.333L389.333 161.667M572.333 161.667L572.667 162.333L572.333 161.667M610 161L611 162L610 161M121 162L122 163L121 162M515.333 162.667L515.667 163.333L515.333 162.667M73 163L74 164L73 163M481.333 163.667L481.667 164.333L481.333 163.667M519.333 163.667L519.667 164.333L519.333 163.667M542 163L543 164L542 163z"/>
<path style="fill:#eda0a2; stroke:none;" d="M611.333 163.667L611.667 164.333L611.333 163.667M120 164L121 165L120 164z"/>
<path style="fill:#c95e62; stroke:none;" d="M292 164L293 165L292 164M388.333 164.667L388.667 165.333L388.333 164.667z"/>
<path style="fill:#eda0a2; stroke:none;" d="M542.333 164.667L542.667 165.333L542.333 164.667z"/>
<path style="fill:#c95e62; stroke:none;" d="M72 165L73 166L72 165M119 165L120 166L119 165M573 165L573 169L574 169L573 165M611 165L612 166L611 165M71 166L72 167L71 166M118 166L119 167L118 166M480.333 166.667L480.667 167.333L480.333 166.667M514 166L515 167L514 166M518.333 166.667L518.667 167.333L518.333 166.667M541.333 166.667L541.667 167.333L541.333 166.667z"/>
<path style="fill:#eda0a2; stroke:none;" d="M118 167L119 168L118 167z"/>
<path style="fill:#c95e62; stroke:none;" d="M291 167L292 168L291 167M387 167L388 168L387 167z"/>
<path style="fill:#eda0a2; stroke:none;" d="M612.333 167.667L612.667 168.333L612.333 167.667z"/>
<path style="fill:#c95e62; stroke:none;" d="M70 168L71 169L70 168M88.6667 168.333L89.3333 168.667L88.6667 168.333M117 168L118 169L117 168z"/>
<path style="fill:#eda0a2; stroke:none;" d="M541.333 168.667L541.667 169.333L541.333 168.667z"/>
<path style="fill:#c95e62; stroke:none;" d="M69 169L70 170L69 169z"/>
<path style="fill:#eda0a2; stroke:none;" d="M88 169L54 221C69.3476 209.704 85.4848 187.896 96 172L88 169z"/>
<path style="fill:#c95e62; stroke:none;" d="M91 169L92 170L91 169M116 169L117 170L116 169M290.333 169.667L290.667 170.333L290.333 169.667M479.333 169.667L479.667 170.333L479.333 169.667M513 169L514 170L513 169M612 169L613 170L612 169M87 170L88 171L87 170M93 170L94 171L93 170z"/>
<path style="fill:#eda0a2; stroke:none;" d="M116 170L117 171L116 170z"/>
<path style="fill:#c95e62; stroke:none;" d="M386 170L387 171L386 170M517.333 170.667L517.667 171.333L517.333 170.667M574 170L574 173L575 173L574 170M68 171L69 172L68 171M86 171L87 172L86 171M95 171L96 172L95 171M115 171L116 172L115 171M512.333 171.667L512.667 172.333L512.333 171.667M540 171L541 172L540 171z"/>
<path style="fill:#eda0a2; stroke:none;" d="M613.333 171.667L613.667 172.333L613.333 171.667z"/>
<path style="fill:#c95e62; stroke:none;" d="M67 172L68 173L67 172M289.333 172.667L289.667 173.333L289.333 172.667M385.333 172.667L385.667 173.333L385.333 172.667M478.333 172.667L478.667 173.333L478.333 172.667z"/>
<path style="fill:#eda0a2; stroke:none;" d="M540 172L541 173L540 172z"/>
<path style="fill:#c95e62; stroke:none;" d="M85 173L86 174L85 173M95 173L96 174L95 173z"/>
<path style="fill:#eda0a2; stroke:none;" d="M114 173L115 174L114 173z"/>
<path style="fill:#c95e62; stroke:none;" d="M516 173L516 176L517 176L516 173M613 173L614 174L613 173M66 174L67 175L66 174M84 174L85 175L84 174M94 174L95 175L94 174M113 174L114 175L113 174M511.333 174.667L511.667 175.333L511.333 174.667M65 175L66 176L65 175M93 175L94 176L93 175M112 175L113 176L112 175M288.333 175.667L288.667 176.333L288.333 175.667M384.333 175.667L384.667 176.333L384.333 175.667M477 175L478 176L477 175M539 175L540 176L539 175M575 175L575 178L576 178L575 175z"/>
<path style="fill:#eda0a2; stroke:none;" d="M614.333 175.667L614.667 176.333L614.333 175.667z"/>
<path style="fill:#c95e62; stroke:none;" d="M83 176L84 177L83 176M92 176L93 177L92 176z"/>
<path style="fill:#eda0a2; stroke:none;" d="M112 176L113 177L112 176z"/>
<path style="fill:#c95e62; stroke:none;" d="M510.333 176.667L510.667 177.333L510.333 176.667z"/>
<path style="fill:#eda0a2; stroke:none;" d="M539 176L540 177L539 176z"/>
<path style="fill:#c95e62; stroke:none;" d="M64 177L65 178L64 177M82 177L83 178L82 177M111 177L112 178L111 177M476 177L477 178L476 177M515.333 177.667L515.667 178.333L515.333 177.667M614 177L615 178L614 177M63 178L64 179L63 178M110 178L111 179L110 178M287.333 178.667L287.667 179.333L287.333 178.667M383.333 178.667L383.667 179.333L383.333 178.667M509.333 178.667L509.667 179.333L509.333 178.667M81 179L82 180L81 179M90 179L91 180L90 179z"/>
<path style="fill:#eda0a2; stroke:none;" d="M110 179L111 180L110 179z"/>
<path style="fill:#c95e62; stroke:none;" d="M475 179L476 180L475 179M538 179L539 180L538 179z"/>
<path style="fill:#eda0a2; stroke:none;" d="M615 179L616 180L615 179z"/>
<path style="fill:#c95e62; stroke:none;" d="M62 180L63 181L62 180M80 180L81 181L80 180M89 180L90 181L89 180M109 180L110 181L109 180M508 180L509 181L508 180z"/>
<path style="fill:#eda0a2; stroke:none;" d="M538 180L539 181L538 180z"/>
<path style="fill:#c95e62; stroke:none;" d="M576.333 180.667L576.667 181.333L576.333 180.667M615 180L616 181L615 180M61 181L62 182L61 181M88 181L89 182L88 181M286.333 181.667L286.667 182.333L286.333 181.667M382.333 181.667L382.667 182.333L382.333 181.667M474 181L475 182L474 181M514.333 181.667L514.667 182.333L514.333 181.667M79 182L80 183L79 182M87 182L88 183L87 182z"/>
<path style="fill:#eda0a2; stroke:none;" d="M108 182L109 183L108 182z"/>
<path style="fill:#c95e62; stroke:none;" d="M473 182L474 183L473 182M507 182L508 183L507 182M537.333 182.667L537.667 183.333L537.333 182.667M60 183L61 184L60 183M78 183L79 184L78 183M86 183L87 184L86 183M107 183L108 184L107 183z"/>
<path style="fill:#eda0a2; stroke:none;" d="M616 183L617 184L616 183z"/>
<path style="fill:#c95e62; stroke:none;" d="M59 184L60 185L59 184M285 184L286 185L285 184M326 184L326 198L327 198L326 184M381 184L382 185L381 184M472 184L473 185L472 184M513.333 184.667L513.667 185.333L513.333 184.667z"/>
<path style="fill:#eda0a2; stroke:none;" d="M537 184L538 185L537 184z"/>
<path style="fill:#c95e62; stroke:none;" d="M577 184L577 187L578 187L577 184M616 184L617 185L616 184M77 185L78 186L77 185M85 185L86 186L85 185z"/>
<path style="fill:#eda0a2; stroke:none;" d="M106 185L107 186L106 185z"/>
<path style="fill:#c95e62; stroke:none;" d="M471 185L472 186L471 185M505 185L506 186L505 185M58 186L59 187L58 186M76 186L77 187L76 186M84 186L85 187L84 186M105 186L106 187L105 186M536 186L537 187L536 186z"/>
<path style="fill:#eda0a2; stroke:none;" d="M617.333 186.667L617.667 187.333L617.333 186.667z"/>
<path style="fill:#c95e62; stroke:none;" d="M57 187L58 188L57 187M83 187L84 188L83 187M104 187L105 188L104 187M284 187L285 188L284 187M380 187L381 188L380 187M470 187L471 188L470 187z"/>
<path style="fill:#eda0a2; stroke:none;" d="M504 187L505 188L504 187M536.333 187.667L536.667 188.333L536.333 187.667z"/>
<path style="fill:#c95e62; stroke:none;" d="M75 188L76 189L75 188M82 188L83 189L82 188z"/>
<path style="fill:#eda0a2; stroke:none;" d="M104 188L105 189L104 188z"/>
<path style="fill:#c95e62; stroke:none;" d="M469 188L470 189L469 188M503 188L504 189L503 188M512 188L513 189L512 188M617.333 188.667L617.667 189.333L617.333 188.667M56 189L57 190L56 189M74 189L75 190L74 189M81 189L82 190L81 189M103 189L104 190L103 189M283.333 189.667L283.667 190.333L283.333 189.667M379.333 189.667L379.667 190.333L379.333 189.667M468 189L469 190L468 189z"/>
<path style="fill:#eda0a2; stroke:none;" d="M503 189L504 190L503 189z"/>
<path style="fill:#c95e62; stroke:none;" d="M578.333 189.667L578.667 190.333L578.333 189.667M55 190L56 191L55 190M467 190L468 191L467 190z"/>
<path style="fill:#eda0a2; stroke:none;" d="M502 190L503 191L502 190z"/>
<path style="fill:#c95e62; stroke:none;" d="M535 190L536 191L535 190z"/>
<path style="fill:#eda0a2; stroke:none;" d="M618.333 190.667L618.667 191.333L618.333 190.667z"/>
<path style="fill:#c95e62; stroke:none;" d="M73 191L74 192L73 191z"/>
<path style="fill:#eda0a2; stroke:none;" d="M102 191L103 192L102 191z"/>
<path style="fill:#c95e62; stroke:none;" d="M466 191L467 192L466 191M501 191L502 192L501 191M511.333 191.667L511.667 192.333L511.333 191.667z"/>
<path style="fill:#eda0a2; stroke:none;" d="M535.333 191.667L535.667 192.333L535.333 191.667z"/>
<path style="fill:#c95e62; stroke:none;" d="M54 192L55 193L54 192M72 192L73 193L72 192M79 192L80 193L79 192M101 192L102 193L101 192M282.333 192.667L282.667 193.333L282.333 192.667M378.333 192.667L378.667 193.333L378.333 192.667M465 192L466 193L465 192M500 192L501 193L500 192M618 192L619 193L618 192M53 193L54 194L53 193M78 193L79 194L78 193M464 193L465 194L464 193M579 193L579 197L580 197L579 193M619 193L620 194L619 193M71 194L72 195L71 194M77 194L78 195L77 194z"/>
<path style="fill:#eda0a2; stroke:none;" d="M100 194L101 195L100 194z"/>
<path style="fill:#c95e62; stroke:none;" d="M452 194L453 195L452 194M463 194L464 195L463 194z"/>
<path style="fill:#eda0a2; stroke:none;" d="M499 194L500 195L499 194z"/>
<path style="fill:#c95e62; stroke:none;" d="M534 194L535 195L534 194M620 194L621 195L620 194M52 195L53 196L52 195M70 195L71 196L70 195M76 195L77 196L76 195M99 195L100 196L99 195M250 195L251 196L250 195M281.333 195.667L281.667 196.333L281.333 195.667M361 195L362 196L361 195M377.333 195.667L377.667 196.333L377.333 195.667z"/>
<path style="fill:#eda0a2; stroke:none;" d="M498 195L499 196L498 195z"/>
<path style="fill:#c95e62; stroke:none;" d="M510.333 195.667L510.667 196.333L510.333 195.667z"/>
<path style="fill:#eda0a2; stroke:none;" d="M534.333 195.667L534.667 196.333L534.333 195.667z"/>
<path style="fill:#c95e62; stroke:none;" d="M621 195L622 196L621 195M98 196L99 197L98 196M249 196L250 197L249 196M360 196L361 197L360 196M460 196L461 197L460 196z"/>
<path style="fill:#eda0a2; stroke:none;" d="M497 196L498 197L497 196z"/>
<path style="fill:#c95e62; stroke:none;" d="M622 196L623 197L622 196M69 197L70 198L69 197z"/>
<path style="fill:#eda0a2; stroke:none;" d="M98 197L99 198L98 197z"/>
<path style="fill:#c95e62; stroke:none;" d="M248 197L249 198L248 197M359 197L360 198L359 197M450 197L451 198L450 197M458 197L459 198L458 197z"/>
<path style="fill:#eda0a2; stroke:none;" d="M496 197L497 198L496 197z"/>
<path style="fill:#c95e62; stroke:none;" d="M50 198L51 199L50 198M68 198L69 199L68 198M97 198L98 199L97 198M247 198L248 199L247 198M280.333 198.667L280.667 199.333L280.333 198.667M325 198L326 199L325 198M358 198L359 199L358 198M376 198L377 199L376 198M449 198L450 199L449 198M457 198L458 199L457 198z"/>
<path style="fill:#eda0a2; stroke:none;" d="M495 198L496 199L495 198z"/>
<path style="fill:#c95e62; stroke:none;" d="M509 198L510 199L509 198M533 198L534 199L533 198M580 198L580 201L581 201L580 198z"/>
<path style="fill:#eda0a2; stroke:none;" d="M625 198L626 199L625 198z"/>
<path style="fill:#c95e62; stroke:none;" d="M73 199L74 200L73 199M246 199L247 200L246 199M357 199L358 200L357 199M375 199L376 200L375 199M448 199L449 200L448 199M454.667 199.333L455.333 199.667L454.667 199.333z"/>
<path style="fill:#eda0a2; stroke:none;" d="M534 199L535 200L534 199M626 199L627 200L626 199z"/>
<path style="fill:#c95e62; stroke:none;" d="M67 200L68 201L67 200M72 200L73 201L72 200z"/>
<path style="fill:#eda0a2; stroke:none;" d="M96 200L97 201L96 200z"/>
<path style="fill:#c95e62; stroke:none;" d="M322 200L323 201L322 200M447 200L450 202L450 201L447 200M451.667 200.333L452.333 200.667L451.667 200.333M492 200L493 201L492 200M506 200L507 201L506 200M535 200L536 201L535 200z"/>
<path style="fill:#eda0a2; stroke:none;" d="M627 200L628 201L627 200z"/>
<path style="fill:#c95e62; stroke:none;" d="M48 201L49 202L48 201M66 201L67 202L66 201M71 201L72 202L71 201M95 201L96 202L95 201M217 201L218 202L217 201M320 201L321 202L320 201M418 201L419 202L418 201M491 201L492 202L491 201M505 201L506 202L505 201M536 201L537 202L536 201M579 201L580 202L579 201z"/>
<path style="fill:#eda0a2; stroke:none;" d="M628 201L629 202L628 201z"/>
<path style="fill:#c95e62; stroke:none;" d="M216 202L217 203L216 202M319 202L320 203L319 202M403.333 202.667L403.667 203.333L403.333 202.667M416 202L417 203L416 202z"/>
<path style="fill:#eda0a2; stroke:none;" d="M490 202L491 203L490 202z"/>
<path style="fill:#c95e62; stroke:none;" d="M503 202L504 203L503 202M537 202L538 203L537 202M578 202L579 203L578 202z"/>
<path style="fill:#eda0a2; stroke:none;" d="M629 202L630 203L629 202z"/>
<path style="fill:#c95e62; stroke:none;" d="M47 203L48 204L47 203M65 203L66 204L65 203z"/>
<path style="fill:#eda0a2; stroke:none;" d="M94 203L95 204L94 203z"/>
<path style="fill:#c95e62; stroke:none;" d="M414 203L415 204L414 203M488 203L489 204L488 203M502 203L503 204L502 203z"/>
<path style="fill:#eda0a2; stroke:none;" d="M539 203L540 204L539 203z"/>
<path style="fill:#c95e62; stroke:none;" d="M577 203L578 204L577 203z"/>
<path style="fill:#eda0a2; stroke:none;" d="M630 203L631 204L630 203z"/>
<path style="fill:#c95e62; stroke:none;" d="M46 204L47 205L46 204M64 204L65 205L64 204M93 204L94 205L93 204M307 204L307 207L308 207L307 204M316 204L317 205L316 204z"/>
<path style="fill:#eda0a2; stroke:none;" d="M487 204L488 205L487 204z"/>
<path style="fill:#c95e62; stroke:none;" d="M501 204L502 205L501 204z"/>
<path style="fill:#eda0a2; stroke:none;" d="M540 204L541 205L540 204M631 204L632 205L631 204z"/>
<path style="fill:#c95e62; stroke:none;" d="M68 205L69 206L68 205M92 205L93 206L92 205M212 205L213 206L212 205M314 205L315 206L314 205M402.333 205.667L402.667 206.333L402.333 205.667M411 205L412 206L411 205M485 205L486 206L485 205z"/>
<path style="fill:#eda0a2; stroke:none;" d="M541 205L542 206L541 205M632 205L633 206L632 205z"/>
<path style="fill:#c95e62; stroke:none;" d="M63 206L64 207L63 206M67 206L68 207L67 206z"/>
<path style="fill:#eda0a2; stroke:none;" d="M92 206L93 207L92 206z"/>
<path style="fill:#c95e62; stroke:none;" d="M211 206L212 207L211 206M313 206L314 207L313 206M409 206L410 207L409 206M483 206L484 207L483 206z"/>
<path style="fill:#eda0a2; stroke:none;" d="M484 206L485 207L484 206z"/>
<path style="fill:#c95e62; stroke:none;" d="M498 206L499 207L498 206M542 206L543 207L542 206M573 206L574 207L573 206z"/>
<path style="fill:#eda0a2; stroke:none;" d="M633 206L634 207L633 206z"/>
<path style="fill:#c95e62; stroke:none;" d="M44 207L45 208L44 207M62 207L63 208L62 207M66 207L67 208L66 207M91 207L92 208L91 207M210 207L211 208L210 207M311 207L312 208L311 207M407 207L408 208L407 207M481 207L482 208L481 207z"/>
<path style="fill:#eda0a2; stroke:none;" d="M482 207L483 208L482 207z"/>
<path style="fill:#c95e62; stroke:none;" d="M497 207L498 208L497 207M543 207L544 208L543 207M572 207L573 208L572 207z"/>
<path style="fill:#eda0a2; stroke:none;" d="M634 207L635 208L634 207z"/>
<path style="fill:#c95e62; stroke:none;" d="M65 208L66 209L65 208M310 208L311 209L310 208M405 208L406 209L405 208M479 208L480 209L479 208z"/>
<path style="fill:#eda0a2; stroke:none;" d="M480 208L481 209L480 208z"/>
<path style="fill:#c95e62; stroke:none;" d="M495 208L496 209L495 208M544 208L545 209L544 208M571 208L572 209L571 208z"/>
<path style="fill:#eda0a2; stroke:none;" d="M635 208L636 209L635 208z"/>
<path style="fill:#c95e62; stroke:none;" d="M61 209L62 210L61 209z"/>
<path style="fill:#eda0a2; stroke:none;" d="M90 209L91 210L90 209z"/>
<path style="fill:#c95e62; stroke:none;" d="M207 209L208 210L207 209M308 209L309 210L308 209M401 209L401 211L403 211L401 209M477 209L478 210L477 209z"/>
<path style="fill:#eda0a2; stroke:none;" d="M478 209L479 210L478 209z"/>
<path style="fill:#c95e62; stroke:none;" d="M494 209L495 210L494 209z"/>
<path style="fill:#eda0a2; stroke:none;" d="M546 209L547 210L546 209z"/>
<path style="fill:#c95e62; stroke:none;" d="M570 209L571 210L570 209z"/>
<path style="fill:#eda0a2; stroke:none;" d="M636 209L637 210L636 209z"/>
<path style="fill:#c95e62; stroke:none;" d="M42 210L43 211L42 210M60 210L61 211L60 210M89 210L90 211L89 210M206 210L207 211L206 210M307 210L308 211L307 210M475 210L476 211L475 210z"/>
<path style="fill:#eda0a2; stroke:none;" d="M476 210L477 211L476 210z"/>
<path style="fill:#c95e62; stroke:none;" d="M492 210L493 211L492 210z"/>
<path style="fill:#cb020e; stroke:none;" d="M493 210L494 211L493 210z"/>
<path style="fill:#eda0a2; stroke:none;" d="M547 210L548 211L547 210M637 210L638 211L637 210z"/>
<path style="fill:#c95e62; stroke:none;" d="M205 211L206 212L205 211z"/>
<path style="fill:#eda0a2; stroke:none;" d="M473 211L474 212L473 211z"/>
<path style="fill:#c95e62; stroke:none;" d="M491 211L492 212L491 211z"/>
<path style="fill:#eda0a2; stroke:none;" d="M548.333 211.667L548.667 212.333L548.333 211.667z"/>
<path style="fill:#c95e62; stroke:none;" d="M559 211L559 212L566 212L559 211z"/>
<path style="fill:#eda0a2; stroke:none;" d="M638 211L638 217L639 217L638 211z"/>
<path style="fill:#c95e62; stroke:none;" d="M41 212L42 213L41 212M59 212L60 213L59 212M62 212L63 213L62 212z"/>
<path style="fill:#eda0a2; stroke:none;" d="M88 212L89 213L88 212z"/>
<path style="fill:#c95e62; stroke:none;" d="M469.667 212.333L470.333 212.667L469.667 212.333z"/>
<path style="fill:#eda0a2; stroke:none;" d="M471 212L472 213L471 212z"/>
<path style="fill:#c95e62; stroke:none;" d="M40 213L41 214L40 213M58 213L59 214L58 213M61 213L62 214L61 213M87 213L88 214L87 213M202 213L203 214L202 213M466 213L467 214L466 213z"/>
<path style="fill:#eda0a2; stroke:none;" d="M467.667 213.333L468.333 213.667L467.667 213.333z"/>
<path style="fill:#c95e62; stroke:none;" d="M488 213L489 214L488 213M559 213L560 214L559 213M60 214L61 215L60 214M86 214L87 215L86 214M201 214L202 215L201 214M462.667 214.333L463.333 214.667L462.667 214.333z"/>
<path style="fill:#eda0a2; stroke:none;" d="M464 214L465 215L464 214z"/>
<path style="fill:#c95e62; stroke:none;" d="M487 214L488 215L487 214M547 214L548 215L547 214z"/>
<path style="fill:#eda0a2; stroke:none;" d="M559 214L560 215L559 214z"/>
<path style="fill:#c95e62; stroke:none;" d="M59 215L60 216L59 215z"/>
<path style="fill:#eda0a2; stroke:none;" d="M86 215L87 216L86 215z"/>
<path style="fill:#c95e62; stroke:none;" d="M200 215L201 216L200 215M457.667 215.333L458.333 215.667L457.667 215.333z"/>
<path style="fill:#eda0a2; stroke:none;" d="M459.667 215.333L460.333 215.667L459.667 215.333z"/>
<path style="fill:#c95e62; stroke:none;" d="M485 215L486 216L485 215z"/>
<path style="fill:#eda0a2; stroke:none;" d="M547 215L548 216L547 215z"/>
<path style="fill:#c95e62; stroke:none;" d="M38 216L39 217L38 216M56 216L57 217L56 216M85 216L86 217L85 216M451.667 216.333L452.333 216.667L451.667 216.333z"/>
<path style="fill:#eda0a2; stroke:none;" d="M453.667 216.333L454.333 216.667L453.667 216.333z"/>
<path style="fill:#c95e62; stroke:none;" d="M483 217L483 218L504 218L483 217M560 216L560 217L591 218L591 217L560 216M197 217L198 218L197 217M211 217L211 218L437 218L416 217L370 217L211 217z"/>
<path style="fill:#eda0a2; stroke:none;" d="M437 217L437 218L447 218L437 217M504 217L504 218L532 218L504 217M534 217L534 218L537 218L534 217M560 217L561 218L560 217M591 217L591 218L633 218C622.012 213.389 602.957 217 591 217M634 217L634 218L637 218L634 217z"/>
<path style="fill:#c95e62; stroke:none;" d="M55 218L56 219L55 218M57 218L58 219L57 218z"/>
<path style="fill:#eda0a2; stroke:none;" d="M84 218L85 219L84 218z"/>
<path style="fill:#c95e62; stroke:none;" d="M196 218L197 219L196 218M210 218L211 219L210 218M36 219L37 220L36 219M54 219L55 220L54 219M56 219L57 220L56 219M83 219L84 220L83 219M195 219L196 220L195 219z"/>
<path style="fill:#eda0a2; stroke:none;" d="M210 219L211 220L210 219z"/>
<path style="fill:#c95e62; stroke:none;" d="M55 220L56 221L55 220M194 220L195 221L194 220M35 221L36 222L35 221M52 223L55 222L52 223z"/>
<path style="fill:#eda0a2; stroke:none;" d="M82 221L83 222L82 221z"/>
<path style="fill:#c95e62; stroke:none;" d="M192 221L193 222L192 221M209 221L210 222L209 221M34 222L35 223L34 222z"/>
<path style="fill:#eda0a2; stroke:none;" d="M53 222L54 223L53 222z"/>
<path style="fill:#c95e62; stroke:none;" d="M81 222L82 223L81 222M191 222L192 223L191 222z"/>
<path style="fill:#eda0a2; stroke:none;" d="M52 223L51 225L52 223z"/>
<path style="fill:#c95e62; stroke:none;" d="M190 223L191 224L190 223M208 223L209 224L208 223M33 224L34 225L33 224M52 224L53 225L52 224z"/>
<path style="fill:#eda0a2; stroke:none;" d="M80 224L81 225L80 224M208 224L209 225L208 224z"/>
<path style="fill:#c95e62; stroke:none;" d="M32 225L33 226L32 225M49 228L52 225L49 228M79 225L80 226L79 225M187 225L188 226L187 225M186 226L187 227L186 226M207 226L208 227L207 226M31 227L32 228L31 227z"/>
<path style="fill:#eda0a2; stroke:none;" d="M78 227L79 228L78 227z"/>
<path style="fill:#c95e62; stroke:none;" d="M185 227L186 228L185 227z"/>
<path style="fill:#eda0a2; stroke:none;" d="M207 227L208 228L207 227z"/>
<path style="fill:#c95e62; stroke:none;" d="M30 228L31 229L30 228M48 228L49 229L48 228M77 228L78 229L77 228M206 229L207 230L206 229M29 230L30 231L29 230z"/>
<path style="fill:#eda0a2; stroke:none;" d="M76 230L77 231L76 230z"/>
<path style="fill:#c95e62; stroke:none;" d="M181 230L182 231L181 230z"/>
<path style="fill:#eda0a2; stroke:none;" d="M206 230L207 231L206 230z"/>
<path style="fill:#c95e62; stroke:none;" d="M28 231L29 232L28 231M75 231L76 232L75 231M180 231L181 232L180 231M179 232L180 233L179 232M205 232L206 233L205 232M27 233L28 234L27 233z"/>
<path style="fill:#eda0a2; stroke:none;" d="M74 233L75 234L74 233z"/>
<path style="fill:#c95e62; stroke:none;" d="M177 233L178 234L177 233z"/>
<path style="fill:#eda0a2; stroke:none;" d="M205 233L206 234L205 233z"/>
<path style="fill:#c95e62; stroke:none;" d="M73 234L74 235L73 234M176 234L177 235L176 234M72 235L73 236L72 235M175 235L176 236L175 235M204 235L205 236L204 235M25 236L26 237L25 236M70 236L71 237L70 236M174 236L175 237L174 236z"/>
<path style="fill:#eda0a2; stroke:none;" d="M204 236L205 237L204 236z"/>
<path style="fill:#c95e62; stroke:none;" d="M68 237L69 238L68 237M66 238L67 239L66 238M171 238L172 239L171 238M203 238L204 239L203 238M23 239L24 240L23 239M63.6667 239.333L64.3333 239.667L63.6667 239.333M170 239L171 240L170 239M22 240L23 241L22 240M61.6667 240.333L62.3333 240.667L61.6667 240.333M169 240L170 241L169 240M60 241L61 242L60 241M168 241L169 242L168 241z"/>
<path style="fill:#eda0a2; stroke:none;" d="M202 241L203 242L202 241z"/>
<path style="fill:#c95e62; stroke:none;" d="M21 242L22 243L21 242M201 243L202 244L201 243z"/>
<path style="fill:#eda0a2; stroke:none;" d="M201 244L202 245L201 244z"/>
<path style="fill:#c95e62; stroke:none;" d="M19 245L20 246L19 245M200 246L201 247L200 246z"/>
<path style="fill:#eda0a2; stroke:none;" d="M200.333 247.667L200.667 248.333L200.333 247.667z"/>
<path style="fill:#c95e62; stroke:none;" d="M17 248L18 249L17 248M199 249L200 250L199 249M16 250L17 251L16 250z"/>
<path style="fill:#eda0a2; stroke:none;" d="M199 250L200 251L199 250z"/>
<path style="fill:#c95e62; stroke:none;" d="M15 251L16 252L15 251M198 252L199 253L198 252z"/>
<path style="fill:#eda0a2; stroke:none;" d="M198 253L199 254L198 253z"/>
<path style="fill:#c95e62; stroke:none;" d="M13 254L14 255L13 254M5 255L6 256L5 255M197 255L198 256L197 255z"/>
<path style="fill:#eda0a2; stroke:none;" d="M5 256L6 257L5 256M197 256L198 257L197 256z"/>
<path style="fill:#c95e62; stroke:none;" d="M6 257L7 258L6 257M196 258L197 259L196 258z"/>
<path style="fill:#eda0a2; stroke:none;" d="M7 259L8 260L7 259z"/>
<path style="fill:#c95e62; stroke:none;" d="M8 260L9 261L8 260M195 260L196 261L195 260z"/>
</svg>
